<?xml version="1.0" encoding="utf-8"?>
<!-- Generator: Adobe Illustrator 17.0.0, SVG Export Plug-In . SVG Version: 6.00 Build 0)  -->
<!DOCTYPE svg PUBLIC "-//W3C//DTD SVG 1.1//EN" "http://www.w3.org/Graphics/SVG/1.1/DTD/svg11.dtd">
<svg version="1.1" id="Layer_1" xmlns="http://www.w3.org/2000/svg" xmlns:xlink="http://www.w3.org/1999/xlink" x="0px" y="0px"
	 width="146.454px" height="146.454px" viewBox="0 0 146.454 146.454" enable-background="new 0 0 146.454 146.454"
	 xml:space="preserve">
<g>
	<path fill="#61190C" d="M52.306,81.535c-2.451-7.726,1.479-19.333,4.143-26.238c1.528-3.964,3.673-7.842,5.956-11.383
		c2.291-3.553,6.297-5.728,8.484-8.96c-1.957,11.062,1.44,37.26,9.297,45.986c1.631,2.438,11.146,12.631,8.707,4.393
		c-1.946-6.581-7.85-11.546-9.984-18.317c-1.939-6.157-3.981-15.393-3.402-21.963c2.159,2.479,2.063,4.58,5.187,6.369
		c2.189,1.255,5.375,2.27,7.863,2.503c5.604,0.525,14.228,0.272,19.557-1.726C97.449,45.383,104.839,31.632,96.16,23.9
		c-4.756-4.236-9.76-4.932-15.89-5.552c-1.388-0.141-2.811,0.024-4.143-0.337c-0.857-0.232-2.416-1.392-3.091-1.475
		c-3.902-0.474-3.194,2.05-3.47,5.272C68.81,30.708,60.634,40.02,55.672,47.27c-13.032,19.765-7.46,36.605-7.509,41.169"/>
	<path fill="#61190C" d="M119.425,103.195c0.015-14.688-9.595-25.113-21.458-25.123c-2.742-0.002-5.362,0.635-7.773,1.794
		c-2.409-1.163-5.026-1.807-7.768-1.809c-11.866-0.011-21.494,10.396-21.508,25.083c-0.001,0.587,0.019,1.17,0.049,1.749
		c-0.032,0.506-0.052,1.014-0.053,1.529c-0.014,14.688,13.031,26.604,29.139,26.62c16.034,0.016,29.055-11.778,29.183-26.378
		C119.352,105.525,119.424,104.369,119.425,103.195z"/>
	<path fill="#61190C" d="M78.208,97.103c-2.371-12.591-12.597-20.525-22.856-18.595c-2.372,0.446-4.532,1.424-6.429,2.809
		c-2.271-0.601-4.64-0.725-7.011-0.279c-10.261,1.932-16.672,12.998-14.302,25.588c0.095,0.505,0.206,1.001,0.326,1.492
		c0.056,0.44,0.12,0.88,0.203,1.32c2.369,12.59,15.582,20.672,29.51,18.052c13.869-2.61,23.214-14.848,20.953-27.384
		C78.524,99.113,78.397,98.112,78.208,97.103z"/>
	<g>
		<g>
			
				<linearGradient id="SVGID_1_" gradientUnits="userSpaceOnUse" x1="480.6383" y1="-27.1174" x2="505.5977" y2="-60.4387" gradientTransform="matrix(-0.1468 0.9892 -0.9892 -0.1468 115.6035 -457.0397)">
				<stop  offset="0" style="stop-color:#AEC337"/>
				<stop  offset="0.4424" style="stop-color:#80B541"/>
				<stop  offset="1" style="stop-color:#C8D92D"/>
			</linearGradient>
			<path fill="url(#SVGID_1_)" d="M103.183,51.447c0.156-0.035,0.274-0.161,0.298-0.317c0.001-0.007,0.002-0.017,0.001-0.024
				c0.015-0.167-0.083-0.324-0.24-0.386c-3.316-1.292-3.764-5.425-4.282-10.213c-0.515-4.774-1.102-10.185-4.663-14.179
				c-4.104-4.599-11.4-6.405-22.314-5.523c-0.175,0.015-0.318,0.146-0.345,0.322l-0.001,0.002c-0.024,0.172,0.071,0.343,0.236,0.406
				c2.715,1.087,2.774,5.322,2.844,10.227c0.068,4.936,0.147,10.528,2.869,14.719C81.9,52.957,89.316,54.395,103.183,51.447z"/>
			
				<linearGradient id="SVGID_2_" gradientUnits="userSpaceOnUse" x1="478.4576" y1="-30.1103" x2="507.3463" y2="-38.758" gradientTransform="matrix(-0.1468 0.9892 -0.9892 -0.1468 115.6035 -457.0397)">
				<stop  offset="0" style="stop-color:#9DBE3B"/>
				<stop  offset="1" style="stop-color:#C8D92D"/>
			</linearGradient>
			<path fill="url(#SVGID_2_)" d="M79.786,46.98c-2.562-4.3-2.574-10.076-2.584-15.172c-0.012-4.928-0.021-9.202-2.406-10.436
				c-0.598,0.032-1.207,0.072-1.83,0.121c-0.169,0.015-0.305,0.143-0.33,0.31l0,0c-0.025,0.167,0.067,0.329,0.224,0.392
				c2.6,1.039,2.655,5.094,2.722,9.786c0.066,4.722,0.142,10.073,2.745,14.085c1.04,1.56,2.269,2.813,3.735,3.772
				C81.212,49.024,80.456,48.075,79.786,46.98z"/>
			
				<linearGradient id="SVGID_3_" gradientUnits="userSpaceOnUse" x1="491.5388" y1="-42.0853" x2="500.2807" y2="-61.6595" gradientTransform="matrix(-0.1468 0.9892 -0.9892 -0.1468 115.6035 -457.0397)">
				<stop  offset="0.0061" style="stop-color:#9ABE3C"/>
				<stop  offset="0.5636" style="stop-color:#DAE127"/>
				<stop  offset="1" style="stop-color:#FEF8BB"/>
			</linearGradient>
			<path fill="url(#SVGID_3_)" d="M103.104,51.074c-8.25-3.213,0.256-22.137-14.499-28.222c3.415,13.361-11.892,21.107-0.624,29.443
				C92.021,52.859,97.011,52.37,103.104,51.074z"/>
			
				<linearGradient id="SVGID_4_" gradientUnits="userSpaceOnUse" x1="488.6273" y1="-48.5972" x2="496.8695" y2="-67.0526" gradientTransform="matrix(-0.1633 0.9866 -0.9866 -0.1633 119.1882 -457.8961)">
				<stop  offset="0.0061" style="stop-color:#9ABD3D"/>
				<stop  offset="0.5636" style="stop-color:#FDF16A"/>
				<stop  offset="1" style="stop-color:#FFFFFF"/>
			</linearGradient>
			<path fill="url(#SVGID_4_)" d="M101.492,51.134c-6.858-7.295,0.868-21.568-12.8-27.475c0.287,1.204,0.411,2.357,0.413,3.467
				C100.326,31.587,91.65,45.574,101.492,51.134z"/>
			
				<linearGradient id="SVGID_5_" gradientUnits="userSpaceOnUse" x1="482.13" y1="-26.2979" x2="490.3812" y2="-49.9189" gradientTransform="matrix(-0.1468 0.9892 -0.9892 -0.1468 115.6035 -457.0397)">
				<stop  offset="0.0061" style="stop-color:#8AC641"/>
				<stop  offset="0.2303" style="stop-color:#B9D332"/>
				<stop  offset="0.3879" style="stop-color:#9DCB3B"/>
				<stop  offset="1" style="stop-color:#7BC043"/>
			</linearGradient>
			<path fill="url(#SVGID_5_)" d="M72.12,19.811c1.402-0.543,4.673-0.85,9.721,3.598c6.685,5.889,8.224,13.437,8.415,17.347
				c-0.317-3.257-3.516-12.04-11.082-16.354c-5.704-3.254-2.586,0.792-7.517-1.468C70.582,22.167,71.424,20.002,72.12,19.811z"/>
			
				<linearGradient id="SVGID_6_" gradientUnits="userSpaceOnUse" x1="482.501" y1="-26.4289" x2="490.4408" y2="-49.1584" gradientTransform="matrix(-0.1468 0.9892 -0.9892 -0.1468 115.6035 -457.0397)">
				<stop  offset="0.0061" style="stop-color:#7FA23E"/>
				<stop  offset="1" style="stop-color:#6FA642"/>
			</linearGradient>
			<path fill="url(#SVGID_6_)" d="M79.174,24.401c6.61,4.191,10.071,11.362,10.895,15.203c-1.332-7.241-6.011-12.523-8.505-14.934
				c-3.469-3.351-10.378-3.325-10.416-2.945c0,0.018,0,0.032,0,0.051c0,0.086,0.006,0.17,0.016,0.255
				c0.003,0.024,0.005,0.049,0.01,0.074c0.017,0.1,0.041,0.196,0.076,0.29c0.006,0.017,0.015,0.03,0.021,0.045
				c0.032,0.077,0.072,0.149,0.12,0.217c0.016,0.022,0.031,0.045,0.048,0.065c0.063,0.078,0.133,0.15,0.219,0.211
				C76.118,23.954,76.731,22.852,79.174,24.401z"/>
			
				<linearGradient id="SVGID_7_" gradientUnits="userSpaceOnUse" x1="491.2711" y1="-43.8904" x2="493.0701" y2="-49.0404" gradientTransform="matrix(-0.1468 0.9892 -0.9892 -0.1468 115.6035 -457.0397)">
				<stop  offset="0.0061" style="stop-color:#A9CF39"/>
				<stop  offset="1" style="stop-color:#9BCA3C"/>
			</linearGradient>
			<path fill="url(#SVGID_7_)" d="M87.802,33.65c1.538,2.893,2.307,5.595,2.454,7.105c-0.101-2.054-0.626-5.057-2.044-8.325
				C88.085,32.843,87.946,33.249,87.802,33.65z"/>
			<path fill="#7DC242" d="M87.931,33.267c-0.044,0.128-0.082,0.256-0.127,0.383c0.285,0.54,0.545,1.072,0.779,1.592
				c0.008,0.016,0.014,0.03,0.019,0.047c0.069,0.153,0.138,0.308,0.202,0.458c0.015,0.033,0.026,0.065,0.04,0.099
				c0.057,0.132,0.112,0.265,0.164,0.396c0.019,0.049,0.036,0.094,0.055,0.141c0.045,0.116,0.091,0.229,0.133,0.343
				c0.021,0.058,0.043,0.114,0.064,0.171c0.036,0.1,0.072,0.199,0.107,0.297c0.025,0.068,0.048,0.137,0.071,0.204
				c0.028,0.082,0.057,0.165,0.083,0.246c0.027,0.079,0.052,0.158,0.076,0.235c0.022,0.066,0.044,0.134,0.063,0.2
				c0.027,0.086,0.053,0.172,0.079,0.257c0.015,0.054,0.03,0.107,0.046,0.16c0.026,0.094,0.051,0.188,0.077,0.276
				c0.011,0.041,0.021,0.083,0.031,0.123c0.027,0.099,0.052,0.195,0.074,0.291c0.008,0.03,0.016,0.06,0.021,0.088
				c0.024,0.102,0.048,0.202,0.067,0.298c0.003,0.011,0.006,0.023,0.01,0.033C89.64,37.28,88.866,35.159,87.931,33.267z"/>
		</g>
		<g>
			
				<linearGradient id="SVGID_8_" gradientUnits="userSpaceOnUse" x1="15.3884" y1="95.9626" x2="39.0719" y2="53.3962" gradientTransform="matrix(0.9827 -0.185 0.185 0.9827 14.1298 30.9868)">
				<stop  offset="0.0061" style="stop-color:#EB2227"/>
				<stop  offset="0.2182" style="stop-color:#BE202E"/>
				<stop  offset="1" style="stop-color:#EB2227"/>
			</linearGradient>
			<path fill="url(#SVGID_8_)" d="M75.858,97.924c-2.091-11.11-11.115-18.113-20.169-16.408c-2.093,0.394-4,1.256-5.674,2.479
				c-2.005-0.53-4.095-0.641-6.187-0.247c-9.056,1.705-14.713,11.471-12.622,22.582c0.084,0.445,0.182,0.883,0.288,1.316
				c0.049,0.389,0.105,0.776,0.179,1.165c2.092,11.111,13.752,18.244,26.044,15.931c12.239-2.304,20.486-13.104,18.49-24.166
				C76.139,99.698,76.026,98.814,75.858,97.924z"/>
			<linearGradient id="SVGID_9_" gradientUnits="userSpaceOnUse" x1="48.7103" y1="102.7858" x2="61.8076" y2="84.2519">
				<stop  offset="0.0061" style="stop-color:#EB2227"/>
				<stop  offset="0.6303" style="stop-color:#F16B6F"/>
				<stop  offset="1" style="stop-color:#FBD5E2"/>
			</linearGradient>
			<path fill="url(#SVGID_9_)" d="M72.705,89.675c-3.905-6.35-10.462-10.021-17.029-8.784c-2.092,0.395-3.999,1.257-5.673,2.479
				c-2.005-0.53-4.095-0.64-6.188-0.246c-5.194,0.978-9.831,5.647-11.396,10.009c4.83,9.829,10.363,8.68,18.959,4.173
				c9.636-5.052,13.635-10.985,24.48,0.619C75.358,95.145,74.185,92.08,72.705,89.675z"/>
			
				<radialGradient id="SVGID_10_" cx="26.7617" cy="97.1493" r="5.8553" gradientTransform="matrix(0.6907 -0.13 0.1018 0.5408 21.3627 37.815)" gradientUnits="userSpaceOnUse">
				<stop  offset="0.2182" style="stop-color:#A72531"/>
				<stop  offset="1" style="stop-color:#F37679"/>
			</radialGradient>
			<path fill="url(#SVGID_10_)" d="M55.126,85.864c0.16,0.854-2.112,2.001-5.075,2.559c-2.963,0.558-5.497,0.317-5.658-0.538
				c-0.161-0.855,2.112-2,5.076-2.559C52.432,84.769,54.965,85.01,55.126,85.864z"/>
			
				<linearGradient id="SVGID_11_" gradientUnits="userSpaceOnUse" x1="128.214" y1="-111.3335" x2="146.9784" y2="-90.0334" gradientTransform="matrix(-0.9478 -0.1545 0.1334 -0.8183 188.5447 53.2674)">
				<stop  offset="0.0061" style="stop-color:#F15A4C"/>
				<stop  offset="0.8909" style="stop-color:#F15C6B"/>
			</linearGradient>
			<path fill="url(#SVGID_11_)" d="M59.634,122.934c-12.98,4.852-24.979-5.529-25.459-14.939c-0.571-5.173,2.527-3.857,3.028,0.325
				C37.616,111.774,40.975,124.413,59.634,122.934z"/>
			
				<linearGradient id="SVGID_12_" gradientUnits="userSpaceOnUse" x1="24.2778" y1="64.6553" x2="24.2778" y2="59.7148" gradientTransform="matrix(0.9827 -0.185 0.185 0.9827 14.1298 30.9868)">
				<stop  offset="0.0061" style="stop-color:#F16F65"/>
				<stop  offset="0.7273" style="stop-color:#F9B6AE"/>
				<stop  offset="1" style="stop-color:#FFE5C4"/>
			</linearGradient>
			<path fill="url(#SVGID_12_)" d="M36.761,92.722c0,0,2.789-5.975,7.073-6.222c4.285-0.248,3.975,2.145,6.755,1.154
				c2.778-0.992,3.332-4.73,6.378-4.885c3.045-0.154,3.802,0.893,5.509,1.06c-1.982,0.233-4.479-0.024-5.812,1.066
				c-1.333,1.089-2.607,5.352-6.536,6.081c-3.316,0.616-5.608-2.421-7.636-2.077C41.056,89.143,38.074,90.797,36.761,92.722z"/>
		</g>
		<g>
			<linearGradient id="SVGID_13_" gradientUnits="userSpaceOnUse" x1="78.442" y1="125.4723" x2="105.2755" y2="77.2447">
				<stop  offset="0.0061" style="stop-color:#EB2227"/>
				<stop  offset="0.2182" style="stop-color:#BE202E"/>
				<stop  offset="1" style="stop-color:#EB2227"/>
			</linearGradient>
			<path fill="url(#SVGID_13_)" d="M115.94,104.021c0-12.906-8.527-22.058-19.044-22.058c-2.431,0-4.752,0.563-6.888,1.582
				c-2.137-1.019-4.457-1.582-6.888-1.582c-10.517,0-19.043,9.151-19.043,22.058c0,0.517,0.019,1.028,0.045,1.537
				c-0.028,0.445-0.045,0.892-0.045,1.344c0,12.906,11.573,23.368,25.851,23.368c14.215,0,25.745-10.373,25.845-23.203
				C115.878,106.069,115.94,105.055,115.94,104.021z"/>
			<linearGradient id="SVGID_14_" gradientUnits="userSpaceOnUse" x1="87.6813" y1="102.5404" x2="102.0343" y2="83.4032">
				<stop  offset="0.0061" style="stop-color:#EB2227"/>
				<stop  offset="0.6303" style="stop-color:#F16B6F"/>
				<stop  offset="1" style="stop-color:#FDE8ED"/>
			</linearGradient>
			<path fill="url(#SVGID_14_)" d="M114.143,94.101c-3.04-7.946-9.62-13.449-17.247-13.449c-2.43,0-4.752,0.564-6.888,1.583
				c-2.137-1.019-4.457-1.583-6.887-1.583c-6.035,0-12.221,4.258-14.898,8.821c3.343,12.044,9.793,11.924,20.385,8.684
				c11.877-3.633,17.615-9.443,27.332,5.864C115.966,100.798,115.297,97.112,114.143,94.101z"/>
			
				<radialGradient id="SVGID_15_" cx="108.1575" cy="124.1831" r="6.6835" gradientTransform="matrix(0.7028 0 0 0.5503 13.0029 17.7773)" gradientUnits="userSpaceOnUse">
				<stop  offset="0.2182" style="stop-color:#A72531"/>
				<stop  offset="1" style="stop-color:#F37679"/>
			</radialGradient>
			<ellipse fill="url(#SVGID_15_)" cx="88.996" cy="86.115" rx="6.233" ry="1.798"/>
			
				<linearGradient id="SVGID_16_" gradientUnits="userSpaceOnUse" x1="55.8526" y1="-119.2574" x2="77.2716" y2="-94.9439" gradientTransform="matrix(-0.9028 -0.3271 0.2825 -0.7795 167.8589 54.209)">
				<stop  offset="0.0061" style="stop-color:#F15A4C"/>
				<stop  offset="0.8909" style="stop-color:#F15C6B"/>
			</linearGradient>
			<path fill="url(#SVGID_16_)" d="M92.46,128.648c-15.586,2.702-26.854-11.476-25.405-22.133c0.452-5.922,3.65-3.793,3.329,1.004
				C70.119,111.481,71.216,126.366,92.46,128.648z"/>
			<linearGradient id="SVGID_17_" gradientUnits="userSpaceOnUse" x1="88.5424" y1="89.6959" x2="88.5424" y2="84.0568">
				<stop  offset="0.0061" style="stop-color:#F16F65"/>
				<stop  offset="0.7273" style="stop-color:#F9B6AE"/>
				<stop  offset="1" style="stop-color:#FFE5C4"/>
			</linearGradient>
			<path fill="url(#SVGID_17_)" d="M73.181,89.931c0,0,4.389-6.114,9.248-5.486c4.858,0.627,4.006,3.246,7.332,2.72
				c3.327-0.525,4.737-4.602,8.186-4.132c3.449,0.471,4.077,1.804,5.958,2.353c-2.274-0.157-5.021-0.974-6.746-0.032
				c-1.724,0.94-4.055,5.454-8.615,5.441c-3.85-0.01-5.78-3.899-8.127-3.941C78.754,86.822,75.061,88.049,73.181,89.931z"/>
			<linearGradient id="SVGID_18_" gradientUnits="userSpaceOnUse" x1="106.4219" y1="92.3943" x2="96.9384" y2="98.3966">
				<stop  offset="0.0061" style="stop-color:#F69797"/>
				<stop  offset="0.8909" style="stop-color:#EB222E"/>
			</linearGradient>
			<ellipse fill="url(#SVGID_18_)" cx="100.405" cy="96.203" rx="8.174" ry="6.443"/>
			<linearGradient id="SVGID_19_" gradientUnits="userSpaceOnUse" x1="104.974" y1="81.0566" x2="110.9069" y2="95.4537">
				<stop  offset="0" style="stop-color:#FAD7D6"/>
				<stop  offset="1" style="stop-color:#FFFFFF"/>
			</linearGradient>
			<path fill="url(#SVGID_19_)" d="M111.492,94.583c0.124-3.357-3.542-9.332-8.956-12.114c5.452,2.401,9.389,7.843,10.599,11.078
				c0.368,0.988,1.568,3.816,0.231,3.816C112.028,97.363,111.454,95.638,111.492,94.583z"/>
			<linearGradient id="SVGID_20_" gradientUnits="userSpaceOnUse" x1="94.1901" y1="94.1565" x2="108.9568" y2="91.9955">
				<stop  offset="0.0061" style="stop-color:#EF5553"/>
				<stop  offset="1" style="stop-color:#FFFFFF"/>
			</linearGradient>
			<path fill="url(#SVGID_20_)" d="M108.545,95.654c-0.355-3.301-3.859-5.895-8.14-5.895c-4.515,0-8.175,2.885-8.175,6.443
				c0,0.243,0.021,0.483,0.054,0.72C98.82,94.573,103.463,92.361,108.545,95.654z"/>
			
				<linearGradient id="SVGID_21_" gradientUnits="userSpaceOnUse" x1="117.7332" y1="115.5226" x2="118.5979" y2="117.6211" gradientTransform="matrix(0.9901 0.1403 -0.1403 0.9901 1.762 -40.4361)">
				<stop  offset="0" style="stop-color:#F9B2A2"/>
				<stop  offset="1" style="stop-color:#FFFFFF"/>
			</linearGradient>
			<path fill="url(#SVGID_21_)" d="M104.605,92.157c-0.093,0.658-0.955,0.732-2.133,0.564c-1.179-0.166-2.228-0.511-2.134-1.17
				c0.093-0.659,1.124-1.058,2.302-0.89C103.82,90.829,104.7,91.498,104.605,92.157z"/>
		</g>
		<g>
			<linearGradient id="SVGID_22_" gradientUnits="userSpaceOnUse" x1="70.0632" y1="77.028" x2="70.0632" y2="36.7961">
				<stop  offset="0.0061" style="stop-color:#046938"/>
				<stop  offset="1" style="stop-color:#7AA340"/>
			</linearGradient>
			<path fill="url(#SVGID_22_)" d="M88.8,86.81c-16.821-11.18-17.843-39.632-17.248-54.935c-0.469,0.611-1.056,1.328-1.803,2.236
				c-1.881,2.282-4.723,5.733-9.332,11.957c-12.416,16.762-9.089,40.978-9.049,41.205l-1.75,0.61
				c-0.171-0.964-3.708-25.554,9.209-42.992c4.641-6.265,7.502-9.739,9.396-12.038c3.123-3.791,2.67-8.464,3.267-12.457l0.011-0.075
				c0.082-0.548,0.212-1.466,1.177-1.351c0.958,0.116,2.678,1.475,2.642,1.879c-0.474,5.2-2.413,19.851-1.027,31.004
				c2.038,16.412,8.245,29.17,16.786,34.846l-1.302,0.242L88.8,86.81z"/>
		</g>
		<linearGradient id="SVGID_23_" gradientUnits="userSpaceOnUse" x1="66.0483" y1="72.7259" x2="66.0483" y2="20.8275">
			<stop  offset="0.0061" style="stop-color:#4B9F47"/>
			<stop  offset="0.5091" style="stop-color:#D7DE27"/>
			<stop  offset="1" style="stop-color:#8CC541"/>
		</linearGradient>
		<path fill="url(#SVGID_23_)" d="M71.542,30.182c0,0,0.447,16.463,0.772,20.716c0.688,8.983,4.126,22.802,10.511,30.521
			c-9.645-16.312-11.777-35.711-9.251-53.608c0.714-2.904-0.213-5.808-1.077-4.757c-0.864,1.05-1.174,6.486-3.398,9.452
			c-2.224,2.965-11.079,12.927-13.742,18.64c-2.604,5.584-6.755,12.067-5.993,30.273C49.138,49.333,69.874,34.475,71.542,30.182z"/>
	</g>
</g>
</svg>
