<svg width="366" height="55" viewBox="0 0 366 55" fill="none" xmlns="http://www.w3.org/2000/svg">
<g clip-path="url(#clip0)">
<path d="M9.43283 2.46977C9.68952 1.04031 10.9333 0 12.3856 0H362.413C364.282 0 365.696 1.69059 365.366 3.53023L356.567 52.5302C356.31 53.9597 355.067 55 353.614 55H3.58671C1.71765 55 0.303579 53.3094 0.633921 51.4698L9.43283 2.46977Z" fill="url(#paint0_angular)"/>
<path d="M9.43283 2.46977C9.68952 1.04031 10.9333 0 12.3856 0H362.413C364.282 0 365.696 1.69059 365.366 3.53023L356.567 52.5302C356.31 53.9597 355.067 55 353.614 55H3.58671C1.71765 55 0.303579 53.3094 0.633921 51.4698L9.43283 2.46977Z" fill="url(#paint1_radial)" style="mix-blend-mode:overlay"/>
<path d="M9.92496 2.55814C10.1389 1.36692 11.1753 0.5 12.3856 0.5H362.413C363.971 0.5 365.149 1.90883 364.874 3.44186L356.075 52.4419C355.861 53.6331 354.825 54.5 353.614 54.5H3.58671C2.02915 54.5 0.850765 53.0912 1.12605 51.5581L9.92496 2.55814Z" stroke="white" stroke-opacity="0.46" style="mix-blend-mode:overlay"/>
<g opacity="0.3" filter="url(#filter0_f)">
<path d="M9.43283 2.46977C9.68952 1.04031 10.9333 0 12.3856 0H358.413C360.282 0 361.696 1.69059 361.366 3.53023L352.567 52.5302C352.31 53.9597 351.067 55 349.614 55H3.5867C1.71764 55 0.303579 53.3094 0.633921 51.4698L9.43283 2.46977Z" fill="url(#paint2_angular)" fill-opacity="0.5"/>
</g>
</g>
<defs>
<filter id="filter0_f" x="-20.4141" y="-21" width="402.828" height="97" filterUnits="userSpaceOnUse" color-interpolation-filters="sRGB">
<feFlood flood-opacity="0" result="BackgroundImageFix"/>
<feBlend mode="normal" in="SourceGraphic" in2="BackgroundImageFix" result="shape"/>
<feGaussianBlur stdDeviation="10.5" result="effect1_foregroundBlur"/>
</filter>
<radialGradient id="paint0_angular" cx="0" cy="0" r="1" gradientUnits="userSpaceOnUse" gradientTransform="translate(363 5.00002) rotate(-165.577) scale(359.325 252.379)">
<stop offset="0.041759" stop-color="#ECC560"/>
<stop offset="0.0617394" stop-color="#EAC76C"/>
<stop offset="0.0797285" stop-color="#DEA446"/>
<stop offset="0.137398" stop-color="#FFEB71"/>
<stop offset="0.192821" stop-color="#E2C064"/>
<stop offset="0.301489" stop-color="#9D7329"/>
<stop offset="0.586019" stop-color="#F1C065"/>
<stop offset="0.688529" stop-color="#CFA63C"/>
<stop offset="0.783452" stop-color="#DAC25E"/>
</radialGradient>
<radialGradient id="paint1_radial" cx="0" cy="0" r="1" gradientUnits="userSpaceOnUse" gradientTransform="translate(184.5 5.00005) rotate(131.07) scale(92.8493 81.4351)">
<stop stop-color="white"/>
<stop offset="1" stop-color="white" stop-opacity="0"/>
</radialGradient>
<radialGradient id="paint2_angular" cx="0" cy="0" r="1" gradientUnits="userSpaceOnUse" gradientTransform="translate(172.667 11.5) rotate(-156.633) scale(260.954 190.156)">
<stop offset="0.041759" stop-color="#ECC560"/>
<stop offset="0.0617394" stop-color="#EAC76C"/>
<stop offset="0.0797285" stop-color="#DEA446"/>
<stop offset="0.137398" stop-color="#FFEB71"/>
<stop offset="0.192821" stop-color="#E2C064"/>
<stop offset="0.301489" stop-color="#9D7329"/>
<stop offset="0.586019" stop-color="#F1C065"/>
<stop offset="0.688529" stop-color="#CFA63C"/>
<stop offset="0.783452" stop-color="#DAC25E"/>
</radialGradient>
<clipPath id="clip0">
<rect width="366" height="55" fill="white"/>
</clipPath>
</defs>
</svg>
