<?xml version="1.0" encoding="utf-8"?>
<!-- Generator: Adobe Illustrator 17.0.0, SVG Export Plug-In . SVG Version: 6.00 Build 0)  -->
<!DOCTYPE svg PUBLIC "-//W3C//DTD SVG 1.1//EN" "http://www.w3.org/Graphics/SVG/1.1/DTD/svg11.dtd">
<svg version="1.1" id="Layer_1" xmlns="http://www.w3.org/2000/svg" xmlns:xlink="http://www.w3.org/1999/xlink" x="0px" y="0px"
	 width="146.454px" height="146.454px" viewBox="0 0 146.454 146.454" enable-background="new 0 0 146.454 146.454"
	 xml:space="preserve">
<g>
	<g>
		<path fill="#851619" d="M114.263,7.153H28.251c-5.429,0-9.83,5.791-9.83,12.934v21.556c0,7.145,4.401,12.935,9.83,12.935h86.012
			c5.428,0,9.83-5.79,9.83-12.935V20.087C124.093,12.944,119.69,7.153,114.263,7.153z"/>
		<path fill="#851619" d="M114.263,52.207H28.251c-5.429,0-9.83,5.102-9.83,11.395v18.988c0,6.293,4.401,11.394,9.83,11.394h86.012
			c5.428,0,9.83-5.101,9.83-11.394V63.602C124.093,57.309,119.69,52.207,114.263,52.207z"/>
		<path fill="#851619" d="M114.263,92.577H28.251c-5.429,0-9.83,5.673-9.83,12.672v21.119c0,6.997,4.401,12.671,9.83,12.671h86.012
			c5.428,0,9.83-5.674,9.83-12.671v-21.119C124.093,98.25,119.69,92.577,114.263,92.577z"/>
	</g>
	<g>
		<path fill="#DF1F26" d="M122.255,38.773c0,6.074-4.249,10.998-9.488,10.998h-83.02c-5.24,0-9.488-4.924-9.488-10.998V20.444
			c0-6.073,4.248-10.997,9.488-10.997h83.02c5.239,0,9.488,4.924,9.488,10.997V38.773z"/>
		<path fill="#010101" d="M117.163,36.989c0,4.89-3.823,8.855-8.541,8.855H33.89c-4.716,0-8.541-3.966-8.541-8.855v-14.76
			c0-4.891,3.825-8.855,8.541-8.855h74.732c4.718,0,8.541,3.965,8.541,8.855V36.989z"/>
		<g>
			<path fill="#D3DDE2" d="M36.439,42.097c0.246-1.981,0.429-3.987,0.546-6.02c0.117-2.031,0.176-4.095,0.176-6.188
				c0-2.004-0.059-4.002-0.176-5.994c-0.117-1.993-0.3-3.997-0.546-6.012h4.399c0.493,0,1.136-0.006,1.932-0.017
				c0.794-0.012,1.344-0.017,1.646-0.017c3.885,0,6.702,0.453,8.454,1.359c1.752,0.907,2.628,2.356,2.628,4.35
				c0,1.287-0.445,2.407-1.335,3.358c-0.891,0.951-2.181,1.689-3.871,2.217c2.083,0.201,3.647,0.758,4.693,1.67
				c1.047,0.912,1.57,2.181,1.57,3.804c0,1.074-0.232,2.07-0.697,2.988c-0.465,0.918-1.128,1.686-1.989,2.301
				c-1.108,0.795-2.443,1.36-4.005,1.696c-1.562,0.336-4.167,0.503-7.815,0.503h-0.924H36.439z M43.492,27.656h0.688
				c1.656,0,2.902-0.235,3.736-0.705c0.834-0.47,1.25-1.176,1.25-2.116c0-0.816-0.313-1.421-0.94-1.813
				c-0.628-0.392-1.59-0.588-2.889-0.588c-0.492,0-0.862,0.002-1.107,0.009c-0.246,0.005-0.471,0.014-0.672,0.024
				c-0.022,0.492-0.039,1.078-0.051,1.755C43.498,24.9,43.492,26.044,43.492,27.656z M43.525,37.379
				c0.124,0.011,0.264,0.02,0.42,0.025c0.157,0.005,0.381,0.008,0.672,0.008c1.802,0,3.138-0.249,4.005-0.747
				c0.867-0.498,1.302-1.268,1.302-2.309s-0.387-1.799-1.159-2.275c-0.772-0.476-2.004-0.714-3.694-0.714
				c-0.167,0-0.36,0.006-0.579,0.017c-0.219,0.011-0.551,0.027-0.999,0.05c0,1.276,0.006,2.575,0.017,3.896
				C43.52,36.651,43.525,37.334,43.525,37.379z"/>
			<path fill="#D3DDE2" d="M65.404,17.884c0.706,0.034,1.425,0.06,2.158,0.075c0.733,0.017,1.464,0.025,2.191,0.025
				c0.75,0,1.5-0.008,2.25-0.025c0.75-0.016,1.489-0.041,2.216-0.075c0.817,3.336,1.898,7.024,3.241,11.065
				c1.344,4.041,2.949,8.424,4.819,13.147h-7.875c-0.213-1.254-0.423-2.361-0.63-3.324c-0.207-0.963-0.411-1.78-0.613-2.452h-7.287
				c-0.191,0.684-0.39,1.506-0.597,2.469c-0.206,0.963-0.422,2.065-0.646,3.308h-7.153c2.171-5.519,3.918-10.299,5.239-14.34
				C64.039,23.717,64.934,20.426,65.404,17.884z M69.62,22.736c-0.493,1.444-0.952,2.872-1.377,4.282
				c-0.427,1.41-0.862,2.928-1.311,4.551h5.122c-0.225-1.075-0.543-2.365-0.958-3.871C70.683,26.193,70.19,24.539,69.62,22.736z"/>
			<path fill="#D3DDE2" d="M84.479,42.097c0.246-1.959,0.429-3.948,0.546-5.969c0.117-2.021,0.176-4.1,0.176-6.238
				c0-1.947-0.059-3.921-0.176-5.919c-0.117-1.998-0.3-4.027-0.546-6.087h8.295c2.016,0,3.627,0.09,4.836,0.269
				s2.193,0.471,2.956,0.873c1.13,0.594,1.997,1.363,2.602,2.309c0.604,0.947,0.907,1.996,0.907,3.149
				c0,1.646-0.493,3.005-1.478,4.08c-0.985,1.074-2.429,1.814-4.333,2.217c0.717,0.279,1.375,0.693,1.974,1.242
				c0.599,0.549,1.178,1.281,1.737,2.199c0.259,0.426,0.812,1.528,1.663,3.309c0.851,1.779,1.662,3.302,2.435,4.566H98.03
				c-1.198-3.582-2.3-6.21-3.308-7.883c-1.008-1.674-2.016-2.578-3.022-2.712v1.478c0,1.299,0.047,2.712,0.143,4.24
				c0.095,1.527,0.232,3.154,0.411,4.877H84.479z M91.7,28.647c0.111,0.012,0.273,0.025,0.486,0.041
				c0.213,0.018,0.347,0.026,0.403,0.026c1.612,0,2.835-0.286,3.669-0.856c0.834-0.571,1.251-1.405,1.251-2.502
				c0-0.997-0.366-1.716-1.1-2.158c-0.733-0.441-1.923-0.663-3.568-0.663c-0.246,0-0.448,0.003-0.604,0.009
				c-0.157,0.006-0.302,0.014-0.437,0.025c-0.034,0.794-0.059,1.601-0.075,2.417c-0.017,0.817-0.025,1.651-0.025,2.502V28.647z"/>
		</g>
	</g>
	<g>
		<path fill="#DF1F26" d="M122.255,82.261c0,6.074-4.249,10.997-9.488,10.997h-83.02c-5.24,0-9.488-4.923-9.488-10.997V63.933
			c0-6.074,4.248-10.999,9.488-10.999h83.02c5.239,0,9.488,4.925,9.488,10.999V82.261z"/>
		<path fill="#010101" d="M117.163,80.476c0,4.891-3.823,8.856-8.541,8.856H33.89c-4.716,0-8.541-3.966-8.541-8.856v-14.76
			c0-4.89,3.825-8.854,8.541-8.854h74.732c4.718,0,8.541,3.965,8.541,8.854V80.476z"/>
		<g>
			<path fill="#D3DDE2" d="M36.439,85.584c0.246-1.982,0.429-3.988,0.546-6.02c0.117-2.032,0.176-4.095,0.176-6.188
				c0-2.005-0.059-4.003-0.176-5.995s-0.3-3.996-0.546-6.012h4.399c0.493,0,1.136-0.005,1.932-0.016
				c0.794-0.012,1.344-0.017,1.646-0.017c3.885,0,6.702,0.452,8.454,1.358c1.752,0.908,2.628,2.357,2.628,4.351
				c0,1.286-0.445,2.406-1.335,3.357c-0.891,0.951-2.181,1.69-3.871,2.218c2.083,0.2,3.647,0.758,4.693,1.669
				c1.047,0.913,1.57,2.181,1.57,3.804c0,1.075-0.232,2.07-0.697,2.989c-0.465,0.918-1.128,1.685-1.989,2.3
				c-1.108,0.795-2.443,1.36-4.005,1.697c-1.562,0.335-4.167,0.503-7.815,0.503h-0.924H36.439z M43.492,71.143h0.688
				c1.656,0,2.902-0.236,3.736-0.705c0.834-0.47,1.25-1.176,1.25-2.116c0-0.816-0.313-1.421-0.94-1.813
				c-0.628-0.393-1.59-0.589-2.889-0.589c-0.492,0-0.862,0.003-1.107,0.01c-0.246,0.005-0.471,0.014-0.672,0.024
				c-0.022,0.492-0.039,1.078-0.051,1.754C43.498,68.388,43.492,69.531,43.492,71.143z M43.525,80.865
				c0.124,0.012,0.264,0.02,0.42,0.026c0.157,0.004,0.381,0.008,0.672,0.008c1.802,0,3.138-0.249,4.005-0.748
				c0.867-0.497,1.302-1.268,1.302-2.309c0-1.041-0.387-1.799-1.159-2.274s-2.004-0.714-3.694-0.714
				c-0.167,0-0.36,0.005-0.579,0.018c-0.219,0.011-0.551,0.027-0.999,0.049c0,1.277,0.006,2.576,0.017,3.896
				C43.52,80.138,43.525,80.82,43.525,80.865z"/>
			<path fill="#D3DDE2" d="M65.404,61.37c0.706,0.034,1.425,0.061,2.158,0.076c0.733,0.017,1.464,0.025,2.191,0.025
				c0.75,0,1.5-0.009,2.25-0.025c0.75-0.016,1.489-0.042,2.216-0.076c0.817,3.337,1.898,7.025,3.241,11.066
				c1.344,4.041,2.949,8.424,4.819,13.148h-7.875c-0.213-1.254-0.423-2.362-0.63-3.324c-0.207-0.964-0.411-1.781-0.613-2.452h-7.287
				c-0.191,0.684-0.39,1.505-0.597,2.469c-0.206,0.962-0.422,2.064-0.646,3.308h-7.153c2.171-5.519,3.918-10.299,5.239-14.34
				C64.039,67.203,64.934,63.912,65.404,61.37z M69.62,66.224c-0.493,1.444-0.952,2.871-1.377,4.282
				c-0.427,1.41-0.862,2.927-1.311,4.55h5.122c-0.225-1.075-0.543-2.364-0.958-3.87C70.683,69.68,70.19,68.026,69.62,66.224z"/>
			<path fill="#D3DDE2" d="M84.479,85.584c0.246-1.959,0.429-3.948,0.546-5.97c0.117-2.02,0.176-4.099,0.176-6.237
				c0-1.947-0.059-3.921-0.176-5.919c-0.117-1.999-0.3-4.027-0.546-6.088h8.295c2.016,0,3.627,0.091,4.836,0.269
				c1.209,0.18,2.193,0.472,2.956,0.874c1.13,0.594,1.997,1.362,2.602,2.309c0.604,0.947,0.907,1.995,0.907,3.149
				c0,1.645-0.493,3.005-1.478,4.08c-0.985,1.074-2.429,1.813-4.333,2.216c0.717,0.279,1.375,0.694,1.974,1.243
				c0.599,0.548,1.178,1.281,1.737,2.199c0.259,0.426,0.812,1.528,1.663,3.308c0.851,1.78,1.662,3.303,2.435,4.567H98.03
				c-1.198-3.582-2.3-6.211-3.308-7.883c-1.008-1.675-2.016-2.578-3.022-2.712v1.478c0,1.299,0.047,2.712,0.143,4.239
				c0.095,1.528,0.232,3.155,0.411,4.878H84.479z M91.7,72.134c0.111,0.013,0.273,0.026,0.486,0.042
				c0.213,0.017,0.347,0.026,0.403,0.026c1.612,0,2.835-0.286,3.669-0.857c0.834-0.57,1.251-1.404,1.251-2.502
				c0-0.996-0.366-1.716-1.1-2.157c-0.733-0.441-1.923-0.664-3.568-0.664c-0.246,0-0.448,0.003-0.604,0.01
				c-0.157,0.006-0.302,0.014-0.437,0.024c-0.034,0.795-0.059,1.602-0.075,2.418c-0.017,0.817-0.025,1.651-0.025,2.502V72.134z"/>
		</g>
	</g>
	<g>
		<path fill="#DF1F26" d="M122.255,125.748c0,6.073-4.249,10.997-9.488,10.997h-83.02c-5.24,0-9.488-4.924-9.488-10.997v-18.329
			c0-6.074,4.248-10.998,9.488-10.998h83.02c5.239,0,9.488,4.924,9.488,10.998V125.748z"/>
		<path fill="#010101" d="M117.163,123.963c0,4.891-3.823,8.855-8.541,8.855H33.89c-4.716,0-8.541-3.965-8.541-8.855v-14.76
			c0-4.89,3.825-8.855,8.541-8.855h74.732c4.718,0,8.541,3.966,8.541,8.855V123.963z"/>
		<g>
			<path fill="#D3DDE2" d="M36.439,129.071c0.246-1.981,0.429-3.988,0.546-6.02c0.117-2.032,0.176-4.095,0.176-6.188
				c0-2.004-0.059-4.002-0.176-5.994s-0.3-3.996-0.546-6.012h4.399c0.493,0,1.136-0.005,1.932-0.016
				c0.794-0.012,1.344-0.018,1.646-0.018c3.885,0,6.702,0.453,8.454,1.359c1.752,0.908,2.628,2.357,2.628,4.35
				c0,1.287-0.445,2.407-1.335,3.358c-0.891,0.951-2.181,1.69-3.871,2.217c2.083,0.201,3.647,0.758,4.693,1.67
				c1.047,0.913,1.57,2.181,1.57,3.804c0,1.075-0.232,2.07-0.697,2.989c-0.465,0.918-1.128,1.685-1.989,2.3
				c-1.108,0.795-2.443,1.36-4.005,1.696c-1.562,0.336-4.167,0.504-7.815,0.504h-0.924H36.439z M43.492,114.631h0.688
				c1.656,0,2.902-0.236,3.736-0.705c0.834-0.471,1.25-1.176,1.25-2.117c0-0.816-0.313-1.42-0.94-1.813
				c-0.628-0.392-1.59-0.588-2.889-0.588c-0.492,0-0.862,0.003-1.107,0.009c-0.246,0.006-0.471,0.014-0.672,0.024
				c-0.022,0.493-0.039,1.078-0.051,1.755C43.498,111.874,43.492,113.018,43.492,114.631z M43.525,124.352
				c0.124,0.012,0.264,0.02,0.42,0.025c0.157,0.005,0.381,0.009,0.672,0.009c1.802,0,3.138-0.25,4.005-0.748
				c0.867-0.498,1.302-1.268,1.302-2.309c0-1.041-0.387-1.799-1.159-2.275c-0.772-0.476-2.004-0.713-3.694-0.713
				c-0.167,0-0.36,0.005-0.579,0.017c-0.219,0.011-0.551,0.027-0.999,0.05c0,1.276,0.006,2.575,0.017,3.896
				C43.52,123.625,43.525,124.308,43.525,124.352z"/>
			<path fill="#D3DDE2" d="M65.404,104.857c0.706,0.034,1.425,0.06,2.158,0.076c0.733,0.017,1.464,0.025,2.191,0.025
				c0.75,0,1.5-0.009,2.25-0.025s1.489-0.042,2.216-0.076c0.817,3.337,1.898,7.025,3.241,11.065
				c1.344,4.041,2.949,8.424,4.819,13.148h-7.875c-0.213-1.254-0.423-2.362-0.63-3.325c-0.207-0.963-0.411-1.78-0.613-2.451h-7.287
				c-0.191,0.683-0.39,1.505-0.597,2.468c-0.206,0.963-0.422,2.065-0.646,3.309h-7.153c2.171-5.519,3.918-10.299,5.239-14.341
				C64.039,110.69,64.934,107.399,65.404,104.857z M69.62,109.71c-0.493,1.444-0.952,2.872-1.377,4.282
				c-0.427,1.41-0.862,2.928-1.311,4.551h5.122c-0.225-1.075-0.543-2.365-0.958-3.871C70.683,113.167,70.19,111.514,69.62,109.71z"
				/>
			<path fill="#D3DDE2" d="M84.479,129.071c0.246-1.959,0.429-3.949,0.546-5.97c0.117-2.021,0.176-4.1,0.176-6.238
				c0-1.947-0.059-3.921-0.176-5.918c-0.117-1.999-0.3-4.027-0.546-6.088h8.295c2.016,0,3.627,0.091,4.836,0.269
				c1.209,0.18,2.193,0.471,2.956,0.874c1.13,0.594,1.997,1.362,2.602,2.309c0.604,0.946,0.907,1.995,0.907,3.148
				c0,1.646-0.493,3.005-1.478,4.08c-0.985,1.074-2.429,1.813-4.333,2.217c0.717,0.279,1.375,0.694,1.974,1.242
				c0.599,0.549,1.178,1.281,1.737,2.2c0.259,0.425,0.812,1.527,1.663,3.308c0.851,1.779,1.662,3.302,2.435,4.567H98.03
				c-1.198-3.582-2.3-6.211-3.308-7.884c-1.008-1.673-2.016-2.577-3.022-2.712v1.478c0,1.299,0.047,2.712,0.143,4.24
				c0.095,1.528,0.232,3.154,0.411,4.878H84.479z M91.7,115.621c0.111,0.012,0.273,0.025,0.486,0.042
				c0.213,0.017,0.347,0.025,0.403,0.025c1.612,0,2.835-0.286,3.669-0.856c0.834-0.57,1.251-1.404,1.251-2.502
				c0-0.997-0.366-1.716-1.1-2.158c-0.733-0.441-1.923-0.663-3.568-0.663c-0.246,0-0.448,0.003-0.604,0.009
				c-0.157,0.006-0.302,0.014-0.437,0.025c-0.034,0.794-0.059,1.601-0.075,2.417c-0.017,0.818-0.025,1.652-0.025,2.502V115.621z"/>
		</g>
	</g>
</g>
</svg>
