<?xml version="1.0" encoding="utf-8"?>
<!-- Generator: Adobe Illustrator 17.0.0, SVG Export Plug-In . SVG Version: 6.00 Build 0)  -->
<!DOCTYPE svg PUBLIC "-//W3C//DTD SVG 1.1//EN" "http://www.w3.org/Graphics/SVG/1.1/DTD/svg11.dtd">
<svg version="1.1" id="Layer_1" xmlns="http://www.w3.org/2000/svg" xmlns:xlink="http://www.w3.org/1999/xlink" x="0px" y="0px"
	 width="146.454px" height="146.454px" viewBox="0 0 146.454 146.454" enable-background="new 0 0 146.454 146.454"
	 xml:space="preserve">
<g>
	<path fill="#331127" d="M48.397,44.517c0.597-5.12-10.767-22.099,0.65-21.965c6.052,0.072,3.703,4.277,3.406,7.966
		c-0.286,3.554,3.033,9.809,1.858,12.63"/>
	<path fill="#331127" d="M108.944,59.454c14.314,21.539,10.352,49.345-8.851,62.109c-19.203,12.76-46.374,5.646-60.689-15.893
		C25.09,84.134,29.05,56.326,48.254,43.565C67.457,30.803,94.629,37.918,108.944,59.454z"/>
	<g>
		
			<linearGradient id="SVGID_1_" gradientUnits="userSpaceOnUse" x1="-8.818" y1="-115.5665" x2="45.4652" y2="-183.7223" gradientTransform="matrix(0.8328 -0.5535 0.5535 0.8328 141.6178 218.7638)">
			<stop  offset="0" style="stop-color:#6D2978"/>
			<stop  offset="0.3515" style="stop-color:#52286E"/>
			<stop  offset="1" style="stop-color:#904990"/>
		</linearGradient>
		<path fill="url(#SVGID_1_)" d="M105.883,61.487c13.056,19.644,9.44,45.003-8.071,56.643c-17.513,11.638-42.294,5.15-55.347-14.492
			c-13.056-19.642-9.443-45.001,8.07-56.641C68.047,35.357,92.829,41.845,105.883,61.487z"/>
		
			<linearGradient id="SVGID_2_" gradientUnits="userSpaceOnUse" x1="31.6121" y1="-110.5014" x2="-13.2729" y2="-126.4949" gradientTransform="matrix(0.8328 -0.5535 0.5535 0.8328 141.6178 218.7638)">
			<stop  offset="0" style="stop-color:#6D2978"/>
			<stop  offset="1" style="stop-color:#8F368C"/>
		</linearGradient>
		<path fill="url(#SVGID_2_)" d="M98.534,112.237c-19.112,13.912-37.407,1.268-39.962,5.336c11.998,7.056,26.998,7.372,38.84-0.498
			c6.169-4.101,10.618-9.859,13.208-16.377C107.436,105.07,103.245,108.807,98.534,112.237z"/>
		
			<linearGradient id="SVGID_3_" gradientUnits="userSpaceOnUse" x1="-5.6615" y1="-133.1758" x2="38.6826" y2="-188.8526" gradientTransform="matrix(0.8328 -0.5535 0.5535 0.8328 141.6178 218.7638)">
			<stop  offset="0" style="stop-color:#562971"/>
			<stop  offset="0.6303" style="stop-color:#8A2A8E"/>
			<stop  offset="1" style="stop-color:#DF9AC4"/>
		</linearGradient>
		<path fill="url(#SVGID_3_)" d="M40.466,100.353c11.938,8.792,28.502,9.718,41.481,1.091c16.628-11.051,21.08-33.59,9.945-50.345
			c-1.504-2.263-3.221-4.294-5.099-6.106c-11.879-5.455-25.452-5.179-36.259,2.005C33.982,57.997,29.85,81.251,40.466,100.353z"/>
		
			<linearGradient id="SVGID_4_" gradientUnits="userSpaceOnUse" x1="68.7277" y1="-40.5271" x2="51.001" y2="-46.8435" gradientTransform="matrix(1.3993 -0.4252 0.2907 0.9568 -19.6753 144.672)">
			<stop  offset="0" style="stop-color:#6D2978"/>
			<stop  offset="1" style="stop-color:#8F368C"/>
		</linearGradient>
		<path fill="url(#SVGID_4_)" d="M50.959,78.002c1.316,4.331,15.487,19.524,12.389,21.585c-13.176,8.764-22.808-13.269-24.13-18.603
			c-1.668-6.729,0.449-24.096,8.179-27.82C50.749,51.55,49.642,73.67,50.959,78.002z"/>
		
			<linearGradient id="SVGID_5_" gradientUnits="userSpaceOnUse" x1="9.4089" y1="-138.7507" x2="9.4089" y2="-186.9402" gradientTransform="matrix(0.8328 -0.5535 0.5535 0.8328 141.6178 218.7638)">
			<stop  offset="0" style="stop-color:#672A79"/>
			<stop  offset="0.7576" style="stop-color:#9E318B"/>
			<stop  offset="1" style="stop-color:#8D348C"/>
		</linearGradient>
		<path fill="url(#SVGID_5_)" d="M54.872,83.073c3.63,10.087,15.238,18.406,13.705,19.428c-5.386-2.031-20.922-14.324-23.739-37.841
			c-0.014-7.913,2.911-16.782,7.34-16.819C46.344,60.699,51.243,72.985,54.872,83.073z"/>
		
			<linearGradient id="SVGID_6_" gradientUnits="userSpaceOnUse" x1="34.6942" y1="-172.0088" x2="34.6942" y2="-190.599" gradientTransform="matrix(0.8328 -0.5535 0.5535 0.8328 141.6178 218.7638)">
			<stop  offset="0" style="stop-color:#FFFFFF"/>
			<stop  offset="1" style="stop-color:#CD99C5"/>
		</linearGradient>
		<path fill="url(#SVGID_6_)" d="M82.925,47.344c-6.44-3.026-22.329-5.163-32.155,0.488c7.184-5.74,23.704-8.501,35.457-2.335
			c1.996,0.949,2.672,2.652,1.269,3.389C87.172,49.055,84.705,48.18,82.925,47.344z"/>
		
			<linearGradient id="SVGID_7_" gradientUnits="userSpaceOnUse" x1="916.2881" y1="-250.4912" x2="916.2881" y2="-269.1442" gradientTransform="matrix(-0.6783 -0.7348 0.7348 -0.6783 872.3456 569.4058)">
			<stop  offset="0" style="stop-color:#DABFDB"/>
			<stop  offset="1" style="stop-color:#892A87"/>
		</linearGradient>
		<path fill="url(#SVGID_7_)" d="M55.572,56.721c-1.971,6.839,2.334,29.154,9.468,37.962c-6.806-6.185-18.421-27.632-14.191-40.209
			c0.623-2.121,2.099-2.752,3.887-2.119C55.895,52.765,56.116,54.832,55.572,56.721z"/>
		
			<linearGradient id="SVGID_8_" gradientUnits="userSpaceOnUse" x1="5.9217" y1="-135.5055" x2="15.6554" y2="-192.6508" gradientTransform="matrix(0.8328 -0.5535 0.5535 0.8328 141.6178 218.7638)">
			<stop  offset="0.0182" style="stop-color:#602A79"/>
			<stop  offset="0.2848" style="stop-color:#441E5B"/>
			<stop  offset="0.5212" style="stop-color:#7E2985"/>
			<stop  offset="1" style="stop-color:#603565"/>
		</linearGradient>
		<path fill="url(#SVGID_8_)" d="M53.513,47.85c-2.483,2.04-5.095,4.27-6.021,7.508c-3.326,11.614,7.942,40.432,26.14,48.435
			c1.632,0.718,2.245,1.546,3.402,0.916c1.158-0.628-1.526-1.091-3.003-2.102C57.485,91.28,50.685,70.494,50.728,59
			c0.014-3.845,1.41-6.85,3.311-8.357C58.494,46.447,55.695,46.054,53.513,47.85z"/>
		
			<linearGradient id="SVGID_9_" gradientUnits="userSpaceOnUse" x1="36.9246" y1="-63.2687" x2="58.3996" y2="-94.4157" gradientTransform="matrix(0.8725 -0.516 0.7262 0.9965 96.0804 174.7278)">
			<stop  offset="0" style="stop-color:#5F2B76"/>
			<stop  offset="1" style="stop-color:#8A54A1"/>
		</linearGradient>
		<path fill="url(#SVGID_9_)" d="M93.453,58.015c10.476,9.927,13.135,24.129,5.94,31.717C92.2,97.323,77.877,95.427,67.402,85.5
			c-10.476-9.929-13.134-24.128-5.941-31.718C68.654,46.191,82.978,48.086,93.453,58.015z"/>
		
			<linearGradient id="SVGID_10_" gradientUnits="userSpaceOnUse" x1="16.1028" y1="-140.4411" x2="40.3847" y2="-175.6591" gradientTransform="matrix(0.8328 -0.5535 0.5535 0.8328 141.6178 218.7638)">
			<stop  offset="0" style="stop-color:#722A81"/>
			<stop  offset="0.4788" style="stop-color:#982E91"/>
			<stop  offset="1" style="stop-color:#CD99C5"/>
		</linearGradient>
		<path fill="url(#SVGID_10_)" d="M96.659,61.484c-0.972-1.201-2.038-2.364-3.206-3.469c-10.475-9.928-24.799-11.823-31.992-4.232
			c-7.192,7.589-4.534,21.789,5.941,31.718c6.871,6.513,15.396,9.567,22.483,8.757C97.329,85.148,99.855,72.856,96.659,61.484z"/>
		<g>
			
				<linearGradient id="SVGID_11_" gradientUnits="userSpaceOnUse" x1="18.6401" y1="-201.2154" x2="32.0992" y2="-201.2154" gradientTransform="matrix(0.8328 -0.5535 0.5535 0.8328 141.6178 218.7638)">
				<stop  offset="0" style="stop-color:#7D488A"/>
				<stop  offset="0.303" style="stop-color:#754D29"/>
				<stop  offset="1" style="stop-color:#C3996B"/>
			</linearGradient>
			<path fill="url(#SVGID_11_)" d="M54.039,50.643c-0.66,0.438-0.76,0.677-1.065,1.072c-0.365-0.513-5.519-14.505-8.631-25.144
				c-0.229-0.782,4.081-2.649,4.853-2.384c0.771,0.266,3.419,1.816,3.153,2.586c-3.767,10.939,2.727,22.793,2.806,22.905
				C54.755,49.976,54.039,50.643,54.039,50.643z"/>
		</g>
		<g>
			
				<linearGradient id="SVGID_12_" gradientUnits="userSpaceOnUse" x1="20.0523" y1="-200.8595" x2="32.0992" y2="-200.8595" gradientTransform="matrix(0.8328 -0.5535 0.5535 0.8328 141.6178 218.7638)">
				<stop  offset="0" style="stop-color:#7D488A"/>
				<stop  offset="0.303" style="stop-color:#503417"/>
				<stop  offset="1" style="stop-color:#C3996B"/>
			</linearGradient>
			<path fill="url(#SVGID_12_)" d="M54.039,50.643c-0.66,0.438-8.105-21.969-4.844-26.456c0.771,0.266,3.419,1.816,3.153,2.586
				c-3.767,10.939,2.727,22.793,2.806,22.905C54.755,49.976,54.039,50.643,54.039,50.643z"/>
		</g>
	</g>
</g>
</svg>
