<?xml version="1.0" encoding="utf-8"?>
<!-- Generator: Adobe Illustrator 17.0.0, SVG Export Plug-In . SVG Version: 6.00 Build 0)  -->
<!DOCTYPE svg PUBLIC "-//W3C//DTD SVG 1.1//EN" "http://www.w3.org/Graphics/SVG/1.1/DTD/svg11.dtd">
<svg version="1.1" id="Layer_1" xmlns="http://www.w3.org/2000/svg" xmlns:xlink="http://www.w3.org/1999/xlink" x="0px" y="0px"
	 width="146.454px" height="146.454px" viewBox="0 0 146.454 146.454" enable-background="new 0 0 146.454 146.454"
	 xml:space="preserve">
<g>
	<g>
		<path fill="#951A1D" d="M86.213,26.083c15.036,5.602,35.226-0.417,35.226-0.417l1,15c-7.421,6.901-48.496,68.688-34.646,94.919
			l-54.208,0.315c-9.33-56.124,48.71-77.338,56.521-84.567c0,0-34.667,0.333-41,0c-1.602-0.084-1.777,1.491-2.667,2.667
			c-0.892,1.177-3,13.333-3,13.333l-19.334-4.667l11.334-41l9.662-0.501l1.198,3.422C66.653,16.953,86.213,26.083,86.213,26.083z"/>
	</g>
	<g>
		<linearGradient id="SVGID_1_" gradientUnits="userSpaceOnUse" x1="26.9287" y1="78.5822" x2="118.0586" y2="78.5822">
			<stop  offset="0" style="stop-color:#ED2224"/>
			<stop  offset="0.4394" style="stop-color:#ED2024"/>
			<stop  offset="1" style="stop-color:#BA2025"/>
		</linearGradient>
		<path fill="url(#SVGID_1_)" d="M83.769,29.666c13.333,5.333,34.289-1.62,34.289-1.62v14.428
			c-6.629,6.429-45.622,65.191-33.451,89.858H36.436c-8-52.667,47.806-75.124,54.784-81.859H57.205c-4.336,0-7.177,0.25-8.522,0.749
			c-1.345,0.499-2.418,1.297-3.214,2.395c-0.798,1.098-1.695,3.566-2.691,7.407l-1.57,6.062l-14.279-3.359l10.466-38.894h9.868
			l1.047,3.215C66.436,21,83.769,29.666,83.769,29.666z"/>
	</g>
	<path fill="#EF4823" d="M116.271,29.5c-3.331,1.706-7.151,4.138-11,4.75c-4.307,0.685-8.565-0.59-12.75-1.257
		c-8.241-1.313-15.594-5.954-23.75-6.749c-3.433-0.335-7.244-0.083-10.5,0.563c-3.331,0.66-6.725,2.775-10.206,2.65
		c-0.452-1.164-1.09-2.263-1.587-3.413c-2.295-0.134-6.663-1.3-8.393,0.601c-0.897,0.986-1.136,3.546-1.492,4.808
		c-1.211,4.299-2.423,8.598-3.635,12.897c-1.729,6.133-3.458,12.267-5.187,18.4l12,3c0,0,1.75-15.5,10.25-17.25
		c7.856,0.095,15.712,0.19,23.567,0.286c4.735,0.058,9.472,0.115,14.207,0.172c1.083,0.013,3.897-0.411,4.209,0.748
		c0.415,1.539-3.596,3.818-4.519,4.44c-1.93,1.302-3.981,2.391-5.965,3.604l22.5,3.5c0,0,7.5-16,13-18.5l-0.5-13.25"/>
	<path fill="#FFFFFF" d="M48.267,29.95c0,0,0.271-0.045,0.779-0.131c0.501-0.105,1.271-0.135,2.183-0.413
		c0.459-0.115,0.967-0.242,1.52-0.381c0.551-0.167,1.146-0.349,1.783-0.542c1.269-0.411,2.71-0.855,4.315-1.283
		c0.798-0.222,1.663-0.363,2.542-0.558c0.444-0.08,0.91-0.093,1.375-0.136c0.468-0.019,0.938-0.114,1.423-0.07
		c0.483,0.03,0.973,0.061,1.469,0.092c0.253,0.021,0.484,0.03,0.757,0.072l0.723,0.149c0.485,0.106,0.975,0.187,1.469,0.316
		c0.494,0.136,0.992,0.274,1.495,0.413c1.981,0.615,3.996,1.297,6.005,2.099c2.022,0.765,4.058,1.59,6.102,2.385
		c0.982,0.407,2.069,0.696,3.095,1.049l1.55,0.521c0.517,0.165,1.045,0.236,1.563,0.357c1.041,0.208,2.056,0.483,3.082,0.648
		c1.039,0.112,2.064,0.223,3.074,0.332c1.004,0.155,2.009,0.076,2.983,0.116c0.976-0.012,1.933,0.085,2.86-0.025
		c1.856-0.144,3.622-0.208,5.227-0.517c0.806-0.123,1.579-0.241,2.314-0.353c0.726-0.165,1.414-0.322,2.062-0.469
		c0.649-0.145,1.257-0.281,1.818-0.407c0.563-0.126,1.06-0.31,1.522-0.43c1.844-0.529,2.897-0.832,2.897-0.832l0.035,0.094
		c0,0-1.022,0.405-2.811,1.114c-0.886,0.389-2.01,0.712-3.301,1.087c-0.646,0.189-1.334,0.389-2.059,0.6
		c-0.742,0.145-1.521,0.297-2.335,0.456c-0.817,0.134-1.655,0.382-2.552,0.437c-0.893,0.084-1.814,0.171-2.764,0.261
		c-0.946,0.134-1.931,0.051-2.931,0.052c-1-0.043-2.03,0.039-3.06-0.152c-1.032-0.136-2.081-0.273-3.143-0.413
		c-1.055-0.198-2.11-0.496-3.175-0.754c-0.526-0.147-1.075-0.248-1.586-0.435l-1.527-0.583c-1.016-0.42-2.037-0.757-3.057-1.25
		c-0.997-0.454-1.995-0.908-2.989-1.36c-1.006-0.419-2.002-0.856-3.008-1.241c-2.007-0.778-4.037-1.417-6.026-1.865
		c-0.497-0.103-0.989-0.205-1.477-0.306c-0.489-0.095-0.992-0.146-1.48-0.22l-0.731-0.102c-0.212-0.019-0.469-0.01-0.698-0.022
		c-0.47-0.02-0.934-0.04-1.392-0.059c-0.915,0.013-1.806,0.155-2.667,0.228c-0.856,0.169-1.69,0.281-2.481,0.48
		c-1.588,0.408-3.044,0.782-4.334,1.113c-0.653,0.155-1.265,0.3-1.831,0.435c-0.575,0.112-1.109,0.2-1.588,0.274
		c-0.956,0.189-1.71,0.148-2.224,0.197c-0.515,0.021-0.789,0.031-0.789,0.031L48.267,29.95z"/>
	<path fill="#FFFFFF" d="M29.771,61c0,0,0.107-0.533,0.293-1.464c0.208-0.927,0.464-2.261,0.843-3.843
		c0.379-1.582,0.791-3.436,1.288-5.406c0.487-1.974,1.042-4.07,1.594-6.167c0.572-2.091,1.141-4.183,1.709-6.135
		c0.556-1.955,1.131-3.765,1.595-5.324c0.465-1.559,0.913-2.841,1.198-3.747c0.306-0.9,0.48-1.414,0.48-1.414
		s-0.106,0.533-0.293,1.465c-0.207,0.926-0.462,2.261-0.841,3.843c-0.38,1.582-0.79,3.436-1.288,5.406
		c-0.486,1.974-1.042,4.069-1.595,6.166c-0.573,2.091-1.143,4.183-1.71,6.134c-0.558,1.955-1.131,3.765-1.595,5.324
		c-0.465,1.559-0.912,2.842-1.196,3.747C29.946,60.486,29.771,61,29.771,61z"/>
	<path fill="#FFFFFF" d="M93.302,51.54c0,0-1.189,0.97-3.269,2.668c-2.083,1.69-5.137,4.022-8.814,6.782
		c-1.836,1.381-3.826,2.878-5.93,4.461c-1.045,0.799-2.138,1.597-3.248,2.419c-1.092,0.846-2.208,1.711-3.342,2.59
		c-0.567,0.441-1.139,0.885-1.714,1.333c-0.551,0.477-1.106,0.957-1.665,1.439c-1.105,0.979-2.257,1.937-3.359,2.964
		c-2.093,2.168-4.348,4.254-6.208,6.689l-1.454,1.77c-0.496,0.597-0.966,1.154-1.383,1.802c-0.877,1.251-1.751,2.496-2.618,3.732
		c-0.829,1.255-1.528,2.558-2.287,3.812c-0.355,0.64-0.774,1.236-1.072,1.899c-0.313,0.654-0.622,1.303-0.93,1.946
		c-1.319,2.533-2.24,5.137-3.208,7.567c-0.388,1.25-0.766,2.466-1.131,3.642c-0.186,0.588-0.369,1.165-0.548,1.732
		c-0.142,0.578-0.28,1.145-0.417,1.701c-0.272,1.112-0.534,2.178-0.782,3.191c-0.235,1.017-0.397,1.996-0.584,2.908
		c-0.364,1.829-0.673,3.425-0.857,4.753c-0.42,2.65-0.66,4.164-0.66,4.164l-0.1-0.01c0,0,0.134-1.53,0.367-4.206
		c0.085-1.344,0.343-2.956,0.611-4.812c0.148-0.925,0.246-1.921,0.462-2.951c0.22-1.03,0.452-2.113,0.694-3.243
		c0.121-0.565,0.245-1.142,0.37-1.73c0.165-0.579,0.332-1.169,0.502-1.769c0.345-1.199,0.714-2.437,1.108-3.703
		c0.98-2.466,1.853-5.139,3.243-7.691c0.323-0.648,0.649-1.302,0.977-1.96c0.313-0.666,0.752-1.275,1.126-1.921
		c0.796-1.263,1.533-2.597,2.401-3.835c0.902-1.21,1.812-2.43,2.725-3.655c0.438-0.621,0.979-1.214,1.488-1.774l1.542-1.718
		c1.023-1.149,2.027-2.314,3.162-3.346c1.088-1.076,2.172-2.147,3.248-3.21c1.119-1.016,2.229-2.023,3.326-3.019
		c0.546-0.501,1.09-0.998,1.629-1.492c0.555-0.476,1.106-0.948,1.652-1.416c1.097-0.934,2.175-1.853,3.23-2.752
		c1.065-0.887,2.141-1.712,3.184-2.52c2.066-1.645,4.095-3.095,5.959-4.444c1.863-1.354,3.565-2.59,5.102-3.656
		c1.524-1.081,2.853-2.023,3.949-2.798c2.202-1.536,3.461-2.414,3.461-2.414L93.302,51.54z"/>
	<path opacity="0.6" fill="#9A1B1F" d="M43.271,120c-0.007-8.037,2.25-26,25.026-45.513C73.457,69.353,82.828,61.881,90.771,63
		c5.272,0.742,5.637,4.372,2.389,8.5c-3.855,4.899-11.511,7.647-16.903,10.361C52.521,88.5,45.933,112.956,43.271,119.5"/>
</g>
</svg>
